<svg width="25" height="25" viewBox="0 0 25 25" fill="none" xmlns="http://www.w3.org/2000/svg">
<path d="M16.4328 7.24345C16.4328 6.69117 16.8805 6.24345 17.4328 6.24345C17.9851 6.24345 18.4328 6.69117 18.4328 7.24345C18.4328 7.79574 17.9851 8.24345 17.4328 8.24345C16.8805 8.24345 16.4328 7.79574 16.4328 7.24345Z" fill="black"/>
<path fill-rule="evenodd" clip-rule="evenodd" d="M12.4328 7.49345C9.80945 7.49345 7.6828 9.6201 7.6828 12.2435C7.6828 14.8668 9.80945 16.9935 12.4328 16.9935C15.0562 16.9935 17.1828 14.8668 17.1828 12.2435C17.1828 9.6201 15.0562 7.49345 12.4328 7.49345ZM9.1828 12.2435C9.1828 10.4485 10.6379 8.99345 12.4328 8.99345C14.2277 8.99345 15.6828 10.4485 15.6828 12.2435C15.6828 14.0384 14.2277 15.4935 12.4328 15.4935C10.6379 15.4935 9.1828 14.0384 9.1828 12.2435Z" fill="black"/>
<path fill-rule="evenodd" clip-rule="evenodd" d="M17.6911 3.07647C14.2245 2.68903 10.6411 2.68903 7.17457 3.07647C5.16251 3.30135 3.53818 4.88636 3.30163 6.90889C2.88709 10.4532 2.88709 14.0337 3.30163 17.578C3.53818 19.6005 5.16251 21.1856 7.17457 21.4104C10.6411 21.7979 14.2245 21.7979 17.6911 21.4104C19.7031 21.1856 21.3274 19.6005 21.564 17.578C21.9785 14.0337 21.9785 10.4532 21.564 6.90889C21.3274 4.88636 19.7031 3.30135 17.6911 3.07647ZM7.34118 4.56719C10.697 4.19212 14.1686 4.19212 17.5244 4.56719C18.8546 4.71585 19.92 5.76546 20.0742 7.08314C20.4752 10.5117 20.4752 13.9752 20.0742 17.4038C19.92 18.7214 18.8546 19.7711 17.5244 19.9197C14.1686 20.2948 10.697 20.2948 7.34118 19.9197C6.01107 19.7711 4.94558 18.7214 4.79147 17.4038C4.39047 13.9752 4.39047 10.5117 4.79147 7.08314C4.94558 5.76546 6.01107 4.71585 7.34118 4.56719Z" fill="black"/>
</svg>
