<svg width="23" height="22" viewBox="0 0 23 22" fill="none" xmlns="http://www.w3.org/2000/svg">
<path fill-rule="evenodd" clip-rule="evenodd" d="M13.9326 0.493469C12.6884 0.493469 11.6826 1.49926 11.6826 2.74347V7.74347C11.6826 8.98768 12.6884 9.99347 13.9326 9.99347C15.1768 9.99347 16.1826 8.98768 16.1826 7.74347V2.74347C16.1826 1.49926 15.1768 0.493469 13.9326 0.493469ZM13.1826 2.74347C13.1826 2.32768 13.5168 1.99347 13.9326 1.99347C14.3484 1.99347 14.6826 2.32768 14.6826 2.74347V7.74347C14.6826 8.15926 14.3484 8.49347 13.9326 8.49347C13.5168 8.49347 13.1826 8.15926 13.1826 7.74347V2.74347Z" fill="black"/>
<path fill-rule="evenodd" clip-rule="evenodd" d="M19.9326 5.49347C18.6884 5.49347 17.6826 6.49926 17.6826 7.74347V9.24347C17.6826 9.65768 18.0184 9.99347 18.4326 9.99347H19.9326C21.1768 9.99347 22.1826 8.98768 22.1826 7.74347C22.1826 6.49926 21.1768 5.49347 19.9326 5.49347ZM19.1826 7.74347C19.1826 7.32768 19.5168 6.99347 19.9326 6.99347C20.3484 6.99347 20.6826 7.32768 20.6826 7.74347C20.6826 8.15926 20.3484 8.49347 19.9326 8.49347H19.1826V7.74347Z" fill="black"/>
<path fill-rule="evenodd" clip-rule="evenodd" d="M6.68262 14.7435C6.68262 13.4993 7.6884 12.4935 8.93262 12.4935C10.1768 12.4935 11.1826 13.4993 11.1826 14.7435V19.7435C11.1826 20.9877 10.1768 21.9935 8.93262 21.9935C7.6884 21.9935 6.68262 20.9877 6.68262 19.7435V14.7435ZM8.93262 13.9935C8.51683 13.9935 8.18262 14.3277 8.18262 14.7435V19.7435C8.18262 20.1593 8.51683 20.4935 8.93262 20.4935C9.3484 20.4935 9.68262 20.1593 9.68262 19.7435V14.7435C9.68262 14.3277 9.3484 13.9935 8.93262 13.9935Z" fill="black"/>
<path fill-rule="evenodd" clip-rule="evenodd" d="M2.93262 12.4935C1.6884 12.4935 0.682617 13.4993 0.682617 14.7435C0.682617 15.9877 1.6884 16.9935 2.93262 16.9935C4.17683 16.9935 5.18262 15.9877 5.18262 14.7435V13.2435C5.18262 12.8293 4.84683 12.4935 4.43262 12.4935H2.93262ZM2.18262 14.7435C2.18262 14.3277 2.51683 13.9935 2.93262 13.9935H3.68262V14.7435C3.68262 15.1593 3.3484 15.4935 2.93262 15.4935C2.51683 15.4935 2.18262 15.1593 2.18262 14.7435Z" fill="black"/>
<path fill-rule="evenodd" clip-rule="evenodd" d="M12.6826 13.7435C12.6826 12.4993 13.6884 11.4935 14.9326 11.4935H19.9326C21.1768 11.4935 22.1826 12.4993 22.1826 13.7435C22.1826 14.9877 21.1768 15.9935 19.9326 15.9935H14.9326C13.6884 15.9935 12.6826 14.9877 12.6826 13.7435ZM14.9326 12.9935C14.5168 12.9935 14.1826 13.3277 14.1826 13.7435C14.1826 14.1593 14.5168 14.4935 14.9326 14.4935H19.9326C20.3484 14.4935 20.6826 14.1593 20.6826 13.7435C20.6826 13.3277 20.3484 12.9935 19.9326 12.9935H14.9326Z" fill="black"/>
<path fill-rule="evenodd" clip-rule="evenodd" d="M13.4326 17.4935C13.0184 17.4935 12.6826 17.8293 12.6826 18.2435V19.7435C12.6826 20.9877 13.6884 21.9935 14.9326 21.9935C16.1768 21.9935 17.1826 20.9877 17.1826 19.7435C17.1826 18.4993 16.1768 17.4935 14.9326 17.4935H13.4326ZM14.1826 19.7435V18.9935H14.9326C15.3484 18.9935 15.6826 19.3277 15.6826 19.7435C15.6826 20.1593 15.3484 20.4935 14.9326 20.4935C14.5168 20.4935 14.1826 20.1593 14.1826 19.7435Z" fill="black"/>
<path fill-rule="evenodd" clip-rule="evenodd" d="M0.682617 8.74347C0.682617 7.49926 1.6884 6.49347 2.93262 6.49347H7.93262C9.17683 6.49347 10.1826 7.49926 10.1826 8.74347C10.1826 9.98768 9.17683 10.9935 7.93262 10.9935H2.93262C1.6884 10.9935 0.682617 9.98768 0.682617 8.74347ZM2.93262 7.99347C2.51683 7.99347 2.18262 8.32768 2.18262 8.74347C2.18262 9.15926 2.51683 9.49347 2.93262 9.49347H7.93262C8.3484 9.49347 8.68262 9.15926 8.68262 8.74347C8.68262 8.32768 8.3484 7.99347 7.93262 7.99347H2.93262Z" fill="black"/>
<path fill-rule="evenodd" clip-rule="evenodd" d="M7.93262 0.493469C6.6884 0.493469 5.68262 1.49926 5.68262 2.74347C5.68262 3.98768 6.6884 4.99347 7.93262 4.99347H9.43262C9.84683 4.99347 10.1826 4.65768 10.1826 4.24347V2.74347C10.1826 1.49926 9.17683 0.493469 7.93262 0.493469ZM7.18262 2.74347C7.18262 2.32768 7.51683 1.99347 7.93262 1.99347C8.3484 1.99347 8.68262 2.32768 8.68262 2.74347V3.49347H7.93262C7.51683 3.49347 7.18262 3.15926 7.18262 2.74347Z" fill="black"/>
</svg>
