<svg width="22" height="19" viewBox="0 0 22 19" fill="none" xmlns="http://www.w3.org/2000/svg">
<path fill-rule="evenodd" clip-rule="evenodd" d="M5.2204 11.2631C5.26417 11.2778 5.30835 11.2883 5.35249 11.2947C5.40063 11.4078 5.46282 11.5542 5.53538 11.7253C5.71246 12.1429 5.95105 12.7077 6.19732 13.297C6.69957 14.4987 7.20618 15.7374 7.31807 16.092C7.45658 16.5303 7.60299 16.8283 7.76282 17.0317C7.84547 17.1369 7.94105 17.2288 8.05289 17.2984C8.10919 17.3334 8.16867 17.3621 8.23075 17.3835C8.23348 17.3844 8.23621 17.3854 8.23894 17.3863C8.55896 17.5071 8.85072 17.4567 9.03339 17.3952C9.13113 17.3623 9.21021 17.3225 9.26626 17.2903C9.29484 17.2739 9.31898 17.2586 9.33824 17.2456L9.34278 17.2425L12.169 15.4801L15.4335 17.9829C15.4817 18.0198 15.5342 18.0508 15.5899 18.0751C15.9821 18.2462 16.3618 18.3059 16.7191 18.2571C17.0757 18.2084 17.3589 18.0585 17.5697 17.8899C17.7761 17.7248 17.916 17.5398 18.0032 17.4024C18.0477 17.3322 18.0811 17.2701 18.1046 17.2226C18.1165 17.1987 18.126 17.1781 18.1333 17.1615L18.1428 17.1397L18.1463 17.1312L18.1478 17.1275L18.1485 17.1259L18.1491 17.1243C18.1663 17.0814 18.1794 17.037 18.1884 16.9917L21.1687 1.96621C21.1782 1.91816 21.183 1.86928 21.183 1.82029C21.183 1.38028 21.0172 0.961878 20.6274 0.707985C20.2942 0.490987 19.923 0.481647 19.6884 0.499452C19.4354 0.518658 19.2017 0.581126 19.0448 0.631042C18.9632 0.657019 18.8948 0.682083 18.8455 0.701204C18.8207 0.710814 18.8003 0.719059 18.7852 0.725347L18.7738 0.730134L2.06011 7.28668L2.05795 7.28745C2.0473 7.29133 2.03362 7.29643 2.01737 7.30276C1.98501 7.31536 1.94165 7.33312 1.89099 7.35607C1.79221 7.40085 1.65363 7.47081 1.51142 7.5682C1.28423 7.72378 0.761742 8.14988 0.849723 8.85318C0.919912 9.41425 1.30429 9.75884 1.53848 9.92454C1.66707 10.0155 1.78924 10.0806 1.87821 10.123C1.91948 10.1426 2.00518 10.1774 2.04236 10.1925L2.05175 10.1963L5.2204 11.2631ZM19.3588 2.11133L19.3564 2.11235C19.3481 2.11596 19.3397 2.11943 19.3313 2.12275L2.59726 8.68725C2.58852 8.69068 2.57972 8.69394 2.57086 8.69704L2.56155 8.70057C2.55084 8.70474 2.53282 8.71205 2.5102 8.72231C2.49737 8.72812 2.48398 8.73446 2.47033 8.74127C2.48909 8.75183 2.50703 8.76101 2.52298 8.7686C2.53829 8.77589 2.54997 8.78087 2.55636 8.7835L5.69899 9.84149C5.75651 9.86085 5.81013 9.88651 5.85935 9.91744L16.2361 3.84295L16.2458 3.8372C16.2534 3.83274 16.2633 3.827 16.2752 3.82027C16.2988 3.80692 16.3313 3.78915 16.3699 3.7695C16.4419 3.73285 16.5571 3.67844 16.6869 3.63832C16.7773 3.61039 17.0438 3.5317 17.3319 3.6241C17.5097 3.68114 17.6938 3.80375 17.8135 4.01145C17.873 4.11464 17.9047 4.2183 17.92 4.31319C17.9608 4.46267 17.9544 4.61028 17.9225 4.73771C17.8537 5.01222 17.6608 5.22634 17.4853 5.39012C17.335 5.53053 15.3896 7.40639 13.4705 9.25815C12.5134 10.1816 11.5661 11.0959 10.8581 11.7794L10.393 12.2284L16.265 16.7302C16.3996 16.7784 16.4792 16.7759 16.5161 16.7709C16.56 16.7649 16.5959 16.748 16.6326 16.7187C16.6736 16.6858 16.7095 16.6415 16.7363 16.5992L16.7374 16.5975L19.6279 2.02449C19.585 2.0348 19.5416 2.04707 19.4998 2.06038C19.4524 2.07545 19.4134 2.08981 19.3875 2.09984C19.3747 2.10481 19.3655 2.10858 19.3605 2.11065L19.3588 2.11133ZM10.8975 14.5052L9.72601 13.6071L9.44214 15.4128L10.8975 14.5052ZM8.65132 11.8249L9.8163 10.7002C10.5244 10.0167 11.4718 9.10226 12.4289 8.17871L13.4014 7.24047L6.88139 11.0573L6.91637 11.1397C7.09408 11.5589 7.33373 12.1262 7.58131 12.7186C7.76644 13.1615 7.96003 13.6279 8.13636 14.0597L8.41939 12.2593C8.44668 12.0857 8.53148 11.9354 8.65132 11.8249Z" fill="black"/>
</svg>
