<svg width="23" height="19" viewBox="0 0 23 19" fill="none" xmlns="http://www.w3.org/2000/svg">
<path fill-rule="evenodd" clip-rule="evenodd" d="M14.4541 0.586931C14.9625 0.499849 15.5318 0.470773 16.0676 0.561415C17.0245 0.723298 17.9083 1.16803 18.607 1.83479C19.0637 1.84511 19.5125 1.75514 19.9096 1.62688C20.2457 1.51833 20.5296 1.38726 20.7286 1.28362C20.8275 1.23209 20.9039 1.18813 20.9536 1.15837C20.9784 1.14351 20.9964 1.13227 21.0072 1.12548L21.0167 1.11942C21.3135 0.92169 21.7087 0.960173 21.9616 1.21168C22.2145 1.46324 22.2553 1.85816 22.059 2.15607C21.8513 2.47136 21.5629 3.03343 21.2399 3.66319C21.1891 3.76221 21.1374 3.8629 21.0851 3.96457C20.8998 4.32454 20.7098 4.68835 20.5327 5.00048C20.4215 5.19647 20.3026 5.39544 20.1827 5.56738V5.84116C20.1903 6.84679 20.075 7.84717 19.8409 8.82039C19.6936 9.43274 19.4993 10.0343 19.2591 10.6197C18.6367 12.1364 17.7183 13.5138 16.5575 14.6716C15.3968 15.8293 14.017 16.7442 12.4988 17.3627C10.9819 17.9807 9.35712 18.2905 7.71927 18.2741C5.34496 18.2761 3.02059 17.5921 1.02587 16.3041C0.732071 16.1144 0.608372 15.7469 0.727709 15.4181C0.847045 15.0894 1.17774 14.8868 1.52481 14.9297C1.82517 14.9669 2.12758 14.9851 2.43023 14.9841C3.51768 14.981 4.58442 14.7407 5.55828 14.2881C5.24873 14.1472 4.9532 13.9734 4.67705 13.7687C3.86533 13.1668 3.26142 12.3268 2.94935 11.3657C2.86826 11.1159 2.9237 10.8419 3.09551 10.6433C3.09859 10.6398 3.1017 10.6363 3.10483 10.6328C2.9213 10.4691 2.74957 10.2909 2.59148 10.0993C1.88016 9.2371 1.48848 8.15567 1.4827 7.03793L1.48268 7.03406L1.48269 6.98406C1.48269 6.71819 1.62344 6.4722 1.85265 6.33748C1.91075 6.30332 1.97233 6.27762 2.03568 6.26038C1.69735 5.5853 1.52141 4.83985 1.52269 4.08359C1.52229 3.22682 1.74609 2.38486 2.17185 1.64135C2.29476 1.42672 2.51559 1.28648 2.76212 1.26651C3.00865 1.24653 3.24917 1.34938 3.40504 1.54143C4.36759 2.72744 5.56888 3.6977 6.93087 4.38917C7.631 4.74462 8.36555 5.02232 9.12135 5.21875C9.54509 5.32888 9.9755 5.41347 10.4103 5.4719C10.3911 4.74864 10.5339 4.02577 10.8337 3.35784C11.2734 2.37801 12.0258 1.57183 12.9731 1.06574C13.3742 0.851414 13.9067 0.680703 14.4541 0.586931ZM3.17597 8.13443C3.30561 8.49931 3.49848 8.84163 3.74854 9.14473C4.23986 9.74028 4.92181 10.1478 5.67902 10.2985C6.01631 10.3656 6.26475 10.6535 6.28177 10.9969C6.2988 11.3404 6.08005 11.6514 5.75105 11.7516C5.47855 11.8345 5.19938 11.8923 4.91702 11.9244C5.1036 12.1649 5.32308 12.3803 5.57049 12.5638C6.13168 12.9799 6.80862 13.2107 7.50713 13.2242C7.82405 13.2303 8.10291 13.435 8.20374 13.7355C8.30457 14.036 8.20558 14.3675 7.95647 14.5635C6.90731 15.389 5.6941 15.9647 4.40856 16.2585C5.47404 16.5998 6.59148 16.7754 7.72178 16.7741L7.73048 16.774C9.17054 16.789 10.5991 16.5169 11.9328 15.9736C13.2665 15.4302 14.4786 14.6266 15.4982 13.6095C16.5179 12.5925 17.3246 11.3825 17.8714 10.0502C18.0824 9.53599 18.2531 9.00753 18.3825 8.46962C18.5883 7.61385 18.6896 6.73418 18.6827 5.84992L18.6827 5.84406V5.31406C18.6827 5.1322 18.7488 4.95654 18.8686 4.81977C18.9379 4.74073 19.0591 4.55817 19.2281 4.26027C19.3887 3.97715 19.5665 3.63724 19.7514 3.27806C19.7626 3.25633 19.7738 3.2345 19.7851 3.21256C19.3055 3.31671 18.7619 3.3713 18.1921 3.30971C18.0116 3.29021 17.8444 3.20592 17.7213 3.07248C17.2185 2.52715 16.5488 2.16414 15.8174 2.0404C15.4929 1.98549 15.1005 1.99806 14.7074 2.0654C14.2803 2.13856 13.9086 2.26657 13.6799 2.38875C13.0256 2.73832 12.5059 3.29516 12.2022 3.97195C11.8985 4.64873 11.828 5.40718 12.0018 6.12834C12.0572 6.35825 12.0009 6.60083 11.85 6.78286C11.699 6.96489 11.471 7.06504 11.2348 7.0531C10.3914 7.01044 9.55691 6.88179 8.74403 6.67052C7.88413 6.44703 7.0484 6.13108 6.25183 5.72667C5.07905 5.13126 4.01099 4.35416 3.08616 3.42647C3.04397 3.64208 3.02255 3.86211 3.02269 4.08356L3.02269 4.08548C3.02165 4.6362 3.1568 5.17863 3.41611 5.66448C3.67542 6.15033 4.05084 6.56452 4.50895 6.87017C4.78697 7.05567 4.9087 7.40275 4.80745 7.72127C4.70619 8.03979 4.40639 8.25287 4.07229 8.24378C3.7697 8.23555 3.46964 8.19874 3.17597 8.13443Z" fill="black"/>
</svg>
